<svg xmlns="http://www.w3.org/2000/svg" width="31.544" height="31.432" viewBox="0 0 31.544 31.432"><defs><style>.a{fill:#0a0a0a;}</style></defs><g transform="translate(0.112 8.98)"><path class="a" d="M11.735,31.451H5V9h6.735Zm24.7,0H29.7V19.458c0-3.125-1.114-4.681-3.321-4.681a3.318,3.318,0,0,0-3.415,2.616V31.451H16.226s.09-20.206,0-22.451h5.316l.411,4.49h.139a7.5,7.5,0,0,1,6.614-3.767A6.972,6.972,0,0,1,34.29,11.97c1.43,1.61,2.142,3.77,2.142,6.8Z" transform="translate(-5 -9)"/></g><ellipse class="a" cx="3.48" cy="3.368" rx="3.48" ry="3.368"/></svg>