<svg xmlns="http://www.w3.org/2000/svg" width="210.932" height="56" viewBox="0 0 210.932 56"><defs><style>.a{fill:#0a0a0a;}</style></defs><path class="a" d="M2.851-354.87l-3.039-.684a4.232,4.232,0,0,1-2.166-1.1A2.915,2.915,0,0,1-3-358.669a3.035,3.035,0,0,1,.646-2.09,4.672,4.672,0,0,1,2.166-1.178,33.458,33.458,0,0,1,3.457-.722A24.72,24.72,0,0,1,7.258-363q3.419,0,4.673,1.254t1.254,4.673v9.5q0,1.52-.152,3.191t-.38,3.191l.152.076a12.353,12.353,0,0,1,2.507-2.659,14.2,14.2,0,0,1,3.419-1.824,14.647,14.647,0,0,1,5.319-.836,13.754,13.754,0,0,1,10.714,4.445q4.027,4.445,4.027,13.715a26.011,26.011,0,0,1-1.444,8.966,18.078,18.078,0,0,1-4.179,6.687,18.029,18.029,0,0,1-6.725,4.179A26.579,26.579,0,0,1,17.364-307a33.721,33.721,0,0,1-6.8-.608,17.051,17.051,0,0,1-4.6-1.52,6.564,6.564,0,0,1-2.356-1.9,5.18,5.18,0,0,1-.76-3.039Zm10.334,39.132a5.552,5.552,0,0,0,1.444.76,9.484,9.484,0,0,0,1.786.494,13.788,13.788,0,0,0,2.469.19,8.423,8.423,0,0,0,6.8-2.925q2.469-2.925,2.469-9.84,0-6.231-2.242-8.928a6.976,6.976,0,0,0-5.585-2.7,7.756,7.756,0,0,0-3.077.57,10.867,10.867,0,0,0-2.242,1.254,12.05,12.05,0,0,0-1.824,1.748Zm36.472-22.339-3.5-.76A4.428,4.428,0,0,1,44-339.9a2.771,2.771,0,0,1-.646-1.976,3.036,3.036,0,0,1,.646-2.09,4.672,4.672,0,0,1,2.166-1.178,28.65,28.65,0,0,1,3.647-.76,26.966,26.966,0,0,1,3.951-.3q2.887,0,4.027,1.14a5.242,5.242,0,0,1,1.14,3.8v2.128l.152.076a15.326,15.326,0,0,1,1.824-3.153,11.905,11.905,0,0,1,2.393-2.393,10.846,10.846,0,0,1,2.811-1.52,9.263,9.263,0,0,1,3.153-.532A4.112,4.112,0,0,1,72.3-345.6a4.112,4.112,0,0,1,1.064,3.039,11.178,11.178,0,0,1-.342,2.925,6.93,6.93,0,0,1-.912,2.09,4.212,4.212,0,0,1-1.254,1.254,2.6,2.6,0,0,1-1.368.418,2.768,2.768,0,0,1-.95-.152q-.418-.152-.8-.3t-.8-.3a3.022,3.022,0,0,0-1.026-.152,7.519,7.519,0,0,0-3.115.684,7.529,7.529,0,0,0-2.811,2.356v18.616l3.647.988a4.736,4.736,0,0,1,2.28,1.14,2.882,2.882,0,0,1,.608,1.976,2.973,2.973,0,0,1-.988,2.28,3.879,3.879,0,0,1-2.735.912H47.226a3.879,3.879,0,0,1-2.735-.912,2.973,2.973,0,0,1-.988-2.28,2.735,2.735,0,0,1,.608-1.938,5.493,5.493,0,0,1,2.28-1.178l3.267-.988Zm30.09-16.792-3.039-.684a4.232,4.232,0,0,1-2.166-1.1,2.915,2.915,0,0,1-.646-2.014,3.035,3.035,0,0,1,.646-2.09,4.672,4.672,0,0,1,2.166-1.178,33.457,33.457,0,0,1,3.457-.722A24.72,24.72,0,0,1,84.154-363q3.419,0,4.673,1.254t1.254,4.673v9.5q0,1.52-.152,3.191t-.38,3.191l.152.076a12.351,12.351,0,0,1,2.507-2.659,14.2,14.2,0,0,1,3.419-1.824,14.647,14.647,0,0,1,5.319-.836q6.611,0,10.182,3.685t3.571,10.9v16.717l2.887.912a5.141,5.141,0,0,1,2.2,1.216,2.882,2.882,0,0,1,.608,1.976,2.973,2.973,0,0,1-.988,2.28,3.879,3.879,0,0,1-2.735.912H102.542a3.879,3.879,0,0,1-2.735-.912,2.973,2.973,0,0,1-.988-2.28A2.882,2.882,0,0,1,99.427-313a5.141,5.141,0,0,1,2.2-1.216l2.735-.912v-14.285q0-5.091-1.824-7.181a6.68,6.68,0,0,0-5.319-2.09,7.756,7.756,0,0,0-3.077.57,10.867,10.867,0,0,0-2.242,1.254,12.05,12.05,0,0,0-1.824,1.748v19.984l2.735.912A5.141,5.141,0,0,1,95.02-313a2.882,2.882,0,0,1,.608,1.976,2.973,2.973,0,0,1-.988,2.28,3.879,3.879,0,0,1-2.735.912H77.771a3.879,3.879,0,0,1-2.735-.912,2.973,2.973,0,0,1-.988-2.28,3.012,3.012,0,0,1,.57-1.976,4.255,4.255,0,0,1,2.014-1.14l3.115-.988Zm48.1,0-3.039-.684a4.232,4.232,0,0,1-2.166-1.1,2.915,2.915,0,0,1-.646-2.014,3.036,3.036,0,0,1,.646-2.09,4.672,4.672,0,0,1,2.166-1.178,33.459,33.459,0,0,1,3.457-.722,24.72,24.72,0,0,1,3.989-.342q3.419,0,4.673,1.254t1.254,4.673v41.943l2.887.912a5.141,5.141,0,0,1,2.2,1.216,2.882,2.882,0,0,1,.608,1.976,2.973,2.973,0,0,1-.988,2.28,3.879,3.879,0,0,1-2.735.912H125.869a3.879,3.879,0,0,1-2.735-.912,2.973,2.973,0,0,1-.988-2.28,3.012,3.012,0,0,1,.57-1.976,4.255,4.255,0,0,1,2.014-1.14l3.115-.988Zm23.707,0-3.039-.684a4.232,4.232,0,0,1-2.166-1.1,2.915,2.915,0,0,1-.646-2.014,3.035,3.035,0,0,1,.646-2.09,4.672,4.672,0,0,1,2.166-1.178,33.45,33.45,0,0,1,3.457-.722,24.72,24.72,0,0,1,3.989-.342q3.419,0,4.673,1.254t1.254,4.673v28.114l10.486-9.8-1.368-.76a4.129,4.129,0,0,1-1.672-1.52,3.9,3.9,0,0,1-.456-1.9,2.546,2.546,0,0,1,.836-1.976,3.377,3.377,0,0,1,2.356-.76h13.145a3.5,3.5,0,0,1,2.431.76,2.546,2.546,0,0,1,.836,1.976,3.293,3.293,0,0,1-.76,2.242,7.022,7.022,0,0,1-2.507,1.634l-1.976.836-10.562,9.194,4.179,5.395a42.187,42.187,0,0,0,2.7,3.267q1.33,1.444,2.621,2.621a28.382,28.382,0,0,0,2.621,2.128,28.234,28.234,0,0,0,2.7,1.71,3.831,3.831,0,0,1,1.406,1.178,2.535,2.535,0,0,1,.342,1.33,3.5,3.5,0,0,1-1.6,2.811,7.693,7.693,0,0,1-4.711,1.216,13.225,13.225,0,0,1-3.5-.456,12.506,12.506,0,0,1-3.229-1.406,15.939,15.939,0,0,1-3.077-2.507,28.777,28.777,0,0,1-3.039-3.761l-8.206-11.7v12.081l1.292.608a6.152,6.152,0,0,1,2.242,1.52,3.346,3.346,0,0,1,.494,1.976,2.88,2.88,0,0,1-1.064,2.28,4.17,4.17,0,0,1-2.811.912H149.576a3.879,3.879,0,0,1-2.735-.912,2.973,2.973,0,0,1-.988-2.28,3.012,3.012,0,0,1,.57-1.976,4.255,4.255,0,0,1,2.014-1.14l3.115-.988Zm43.007,41.259a6.549,6.549,0,0,1,1.938-4.825,6.549,6.549,0,0,1,4.825-1.938,6.432,6.432,0,0,1,4.749,1.862,6.432,6.432,0,0,1,1.862,4.749,6.549,6.549,0,0,1-1.938,4.825A6.549,6.549,0,0,1,201.169-307a6.432,6.432,0,0,1-4.749-1.862A6.432,6.432,0,0,1,194.559-313.61Z" transform="translate(3 363)"/></svg>